%TF.GenerationSoftware,Altium Limited,Altium Designer,20.2.7 (254)*%
G04 Layer_Physical_Order=2*
G04 Layer_Color=16711680*
%FSLAX26Y26*%
%MOIN*%
%TF.SameCoordinates,6734EFFF-7692-4107-8553-5EC10253203B*%
%TF.FilePolarity,Positive*%
%TF.FileFunction,Copper,L2,Bot,Signal*%
%TF.Part,Single*%
G01*
G75*
%TA.AperFunction,Conductor*%
%ADD10C,0.039370*%
%TA.AperFunction,ComponentPad*%
%ADD11C,0.064370*%
%ADD12R,0.043307X0.043307*%
%ADD13C,0.043307*%
%ADD14C,0.055118*%
%ADD15C,0.053937*%
%TA.AperFunction,ViaPad*%
%ADD16C,0.118110*%
D10*
X2570000Y1740000D02*
X2696000Y1614000D01*
Y1291000D02*
Y1614000D01*
X2630000Y1225000D02*
X2696000Y1291000D01*
X2120000Y1225000D02*
X2285000D01*
X1945000Y1230000D02*
X2120000Y1225000D01*
X1320000D02*
X1610000D01*
X1295000Y1250000D02*
X1320000Y1225000D01*
X1783000Y1230000D02*
X1945000D01*
X1610000Y1225000D02*
X1783000Y1230000D01*
X1970000Y1455000D02*
Y1740000D01*
X1945000Y1430000D02*
X1970000Y1455000D01*
X2070000Y1740000D02*
X2285000Y1525000D01*
Y1425000D02*
Y1525000D01*
X2470000Y1740000D02*
X2521340Y1791340D01*
X2604660D01*
X2955000Y1441000D01*
Y1335000D02*
Y1441000D01*
X2630000Y1225000D02*
X3045000D01*
X3155000Y1335000D01*
X1870000Y1685000D02*
Y1740000D01*
X1610000Y1425000D02*
X1870000Y1685000D01*
X3055000Y1335000D02*
Y1620000D01*
X2834290Y1840710D02*
X3055000Y1620000D01*
X2470710Y1840710D02*
X2834290D01*
X2370000Y1740000D02*
X2470710Y1840710D01*
X2485000Y1425000D02*
X2630000D01*
X2170000Y1740000D02*
X2485000Y1425000D01*
X2218000Y1792000D02*
X2270000Y1740000D01*
X1737000Y1792000D02*
X2218000D01*
X1195000Y1250000D02*
X1737000Y1792000D01*
X2285000Y1225000D02*
X2630000D01*
D11*
X1610000D02*
D03*
Y1425000D02*
D03*
X1945000Y1230000D02*
D03*
Y1430000D02*
D03*
X2285000Y1225000D02*
D03*
Y1425000D02*
D03*
X2630000Y1225000D02*
D03*
Y1425000D02*
D03*
D12*
X1870000Y1740000D02*
D03*
D13*
X1970000D02*
D03*
X2070000D02*
D03*
X2170000D02*
D03*
X2270000D02*
D03*
X2370000D02*
D03*
X2470000D02*
D03*
X2570000D02*
D03*
D14*
X1295000Y1250000D02*
D03*
X1195000D02*
D03*
D15*
X3155000Y1335000D02*
D03*
X3055000D02*
D03*
X2955000D02*
D03*
D16*
X3250000Y1875000D02*
D03*
X1100000Y1880000D02*
D03*
%TF.MD5,ebe9a35c3ffcaeb795b8e53b64b1ad9d*%
M02*
