%TF.GenerationSoftware,Altium Limited,Altium Designer,20.2.7 (254)*%
G04 Layer_Color=16711935*
%FSLAX26Y26*%
%MOIN*%
%TF.SameCoordinates,6734EFFF-7692-4107-8553-5EC10253203B*%
%TF.FilePolarity,Negative*%
%TF.FileFunction,Soldermask,Bot*%
%TF.Part,Single*%
G01*
G75*
%TA.AperFunction,ComponentPad*%
%ADD17C,0.072370*%
%ADD18R,0.051307X0.051307*%
%ADD19C,0.051307*%
%ADD20C,0.063118*%
%ADD21C,0.061937*%
%TA.AperFunction,ViaPad*%
%ADD22C,0.126110*%
D17*
X1610000Y1225000D02*
D03*
Y1425000D02*
D03*
X1945000Y1230000D02*
D03*
Y1430000D02*
D03*
X2285000Y1225000D02*
D03*
Y1425000D02*
D03*
X2630000Y1225000D02*
D03*
Y1425000D02*
D03*
D18*
X1870000Y1740000D02*
D03*
D19*
X1970000D02*
D03*
X2070000D02*
D03*
X2170000D02*
D03*
X2270000D02*
D03*
X2370000D02*
D03*
X2470000D02*
D03*
X2570000D02*
D03*
D20*
X1295000Y1250000D02*
D03*
X1195000D02*
D03*
D21*
X3155000Y1335000D02*
D03*
X3055000D02*
D03*
X2955000D02*
D03*
D22*
X3250000Y1875000D02*
D03*
X1100000Y1880000D02*
D03*
%TF.MD5,6772e97b3fb01833e295162951bd0ff9*%
M02*
