%TF.GenerationSoftware,Altium Limited,Altium Designer,20.2.7 (254)*%
G04 Layer_Color=16711935*
%FSLAX26Y26*%
%MOIN*%
%TF.SameCoordinates,6B6101E1-C1E4-40C1-A6FF-A8A0D89029E3*%
%TF.FilePolarity,Negative*%
%TF.FileFunction,Soldermask,Bot*%
%TF.Part,Single*%
G01*
G75*
%TA.AperFunction,ComponentPad*%
%ADD29C,0.084181*%
%ADD30R,0.084181X0.084181*%
%ADD31C,0.055244*%
%ADD32C,0.052606*%
%ADD33R,0.052606X0.052606*%
%ADD34C,0.051307*%
%ADD35R,0.051307X0.051307*%
%ADD36C,0.053276*%
%ADD37R,0.053276X0.053276*%
%ADD38R,0.053276X0.053276*%
%ADD39R,0.072961X0.072961*%
%ADD40C,0.072961*%
%ADD41R,0.072961X0.072961*%
%ADD42C,0.117843*%
%ADD43R,0.070008X0.070008*%
%ADD44C,0.070008*%
%ADD45R,0.055244X0.055244*%
%TA.AperFunction,ViaPad*%
%ADD46C,0.126110*%
D29*
X1315000Y4295000D02*
D03*
Y4195000D02*
D03*
D30*
Y4095000D02*
D03*
D31*
X1995000Y4070000D02*
D03*
Y3420394D02*
D03*
X1855000Y4226574D02*
D03*
Y4325000D02*
D03*
X1690000Y3045000D02*
D03*
X1788426D02*
D03*
X860000Y4370000D02*
D03*
X958426D02*
D03*
X1480000Y2453582D02*
D03*
Y3115000D02*
D03*
X785984Y4595000D02*
D03*
D32*
X885000Y2480000D02*
D03*
Y2580000D02*
D03*
Y2680000D02*
D03*
Y2780000D02*
D03*
Y2880000D02*
D03*
Y2980000D02*
D03*
Y3080000D02*
D03*
Y3180000D02*
D03*
Y3280000D02*
D03*
Y3380000D02*
D03*
Y3480000D02*
D03*
Y3580000D02*
D03*
Y3680000D02*
D03*
Y3780000D02*
D03*
X1285000D02*
D03*
Y3680000D02*
D03*
Y3580000D02*
D03*
Y3480000D02*
D03*
Y3380000D02*
D03*
Y3280000D02*
D03*
Y3180000D02*
D03*
Y3080000D02*
D03*
Y2980000D02*
D03*
Y2880000D02*
D03*
Y2780000D02*
D03*
Y2680000D02*
D03*
Y2580000D02*
D03*
X1825000Y3630000D02*
D03*
Y3530000D02*
D03*
Y3430000D02*
D03*
Y3330000D02*
D03*
X1515000D02*
D03*
Y3430000D02*
D03*
Y3530000D02*
D03*
D33*
X1285000Y2480000D02*
D03*
X1515000Y3630000D02*
D03*
D34*
X890000Y4075000D02*
D03*
D35*
X968740D02*
D03*
D36*
X1995000Y4535000D02*
D03*
X1595000Y4246260D02*
D03*
X1718740Y3920000D02*
D03*
D37*
X2073740Y4535000D02*
D03*
X1640000Y3920000D02*
D03*
D38*
X1595000Y4325000D02*
D03*
D39*
X1850000Y2580000D02*
D03*
D40*
X1950000D02*
D03*
X375000Y3145000D02*
D03*
Y3245000D02*
D03*
Y3345000D02*
D03*
Y3445000D02*
D03*
Y3545000D02*
D03*
Y3645000D02*
D03*
Y3745000D02*
D03*
D41*
Y3045000D02*
D03*
D42*
X475000Y4150000D02*
D03*
Y4400000D02*
D03*
D43*
X380000Y2465000D02*
D03*
D44*
Y2565000D02*
D03*
Y2665000D02*
D03*
Y2765000D02*
D03*
D45*
X1160000Y4595000D02*
D03*
D46*
X2170000Y2280000D02*
D03*
X220000Y2270000D02*
D03*
X2190000Y4820000D02*
D03*
X215000Y4830000D02*
D03*
%TF.MD5,e16ff2043164b6b7300ffaabb55205e1*%
M02*
