%TF.GenerationSoftware,Altium Limited,Altium Designer,20.2.7 (254)*%
G04 Layer_Physical_Order=2*
G04 Layer_Color=16711680*
%FSLAX26Y26*%
%MOIN*%
%TF.SameCoordinates,6B6101E1-C1E4-40C1-A6FF-A8A0D89029E3*%
%TF.FilePolarity,Positive*%
%TF.FileFunction,Copper,L2,Bot,Signal*%
%TF.Part,Single*%
G01*
G75*
%TA.AperFunction,Conductor*%
%ADD10C,0.039370*%
%TA.AperFunction,ComponentPad*%
%ADD11C,0.076181*%
%ADD12R,0.076181X0.076181*%
%ADD13C,0.047244*%
%ADD14C,0.044606*%
%ADD15R,0.044606X0.044606*%
%ADD16C,0.043307*%
%ADD17R,0.043307X0.043307*%
%ADD18C,0.045276*%
%ADD19R,0.045276X0.045276*%
%ADD20R,0.045276X0.045276*%
%ADD21R,0.064961X0.064961*%
%ADD22C,0.064961*%
%ADD23R,0.064961X0.064961*%
%ADD24C,0.109843*%
%ADD25R,0.062008X0.062008*%
%ADD26C,0.062008*%
%ADD27R,0.047244X0.047244*%
%TA.AperFunction,ViaPad*%
%ADD28C,0.118110*%
D10*
X860000Y4105000D02*
X890000Y4075000D01*
X815000Y4150000D02*
X860000Y4105000D01*
X1427000Y4004000D02*
X1632426D01*
X915000D02*
X1427000D01*
X1718426Y3115000D02*
X1769000Y3064426D01*
X319310Y2526000D02*
X380000D01*
X1162000Y4095000D02*
X1315000D01*
X968740Y4075000D02*
X1162000Y4095000D01*
X890000Y4029000D02*
Y4075000D01*
X1427000Y3618000D02*
Y4004000D01*
Y3618000D02*
X1515000Y3530000D01*
X1850000Y2580000D02*
X1912166Y2517834D01*
X2023000D01*
X2049000Y2543834D01*
Y3736000D01*
X1855000Y3930000D02*
X2049000Y3736000D01*
X1855000Y3930000D02*
Y4226574D01*
X1366260Y4246260D02*
X1595000D01*
X1315000Y4195000D02*
X1366260Y4246260D01*
X1614686Y4226574D02*
X1855000D01*
X1595000Y4246260D02*
X1614686Y4226574D01*
X475000Y4150000D02*
X815000D01*
X860000Y4105000D02*
Y4370000D01*
X1345000Y4325000D02*
X1595000D01*
X1315000Y4295000D02*
X1345000Y4325000D01*
X1769000Y3374000D02*
X1825000Y3430000D01*
X1769000Y3064426D02*
Y3374000D01*
Y3064426D02*
X1788426Y3045000D01*
X1320000Y3115000D02*
X1480000D01*
X1285000Y3080000D02*
X1320000Y3115000D01*
X380000Y2526000D02*
Y2565000D01*
X319310Y2404310D02*
Y2526000D01*
Y2404310D02*
X740830D01*
X766500Y2378640D01*
X986360D01*
Y2781360D01*
X1285000Y3080000D01*
X440000Y3280000D02*
X885000D01*
X375000Y3345000D02*
X440000Y3280000D01*
X1311418Y2453582D02*
X1480000D01*
X1285000Y2480000D02*
X1311418Y2453582D01*
X700000Y2665000D02*
X885000Y2480000D01*
X380000Y2665000D02*
X700000D01*
X2073740Y4148740D02*
Y4535000D01*
X1995000Y4070000D02*
X2073740Y4148740D01*
X590984Y4400000D02*
X785984Y4595000D01*
X475000Y4400000D02*
X590984D01*
X820000Y3745000D02*
X885000Y3680000D01*
X375000Y3745000D02*
X820000D01*
X1339000Y3606000D02*
X1515000Y3430000D01*
X1339000Y3606000D02*
Y3810000D01*
X1291000Y3858000D02*
X1339000Y3810000D01*
X385000Y3858000D02*
X1291000D01*
X312000Y3785000D02*
X385000Y3858000D01*
X312000Y3308000D02*
Y3785000D01*
Y3308000D02*
X375000Y3245000D01*
X1632426Y4004000D02*
X1855000Y4226574D01*
X890000Y4029000D02*
X915000Y4004000D01*
X958426Y4370000D02*
X1040000D01*
X1160000Y4490000D01*
Y4595000D01*
X430690Y2825690D02*
X885000Y3280000D01*
X319310Y2825690D02*
X430690D01*
X319310Y2625690D02*
Y2825690D01*
Y2625690D02*
X380000Y2565000D01*
X375000Y3145000D02*
X438000D01*
Y2985000D02*
Y3145000D01*
X368000Y2915000D02*
X438000Y2985000D01*
X309880Y2915000D02*
X368000D01*
X269000Y2874120D02*
X309880Y2915000D01*
X269000Y2360000D02*
Y2874120D01*
Y2360000D02*
X300000Y2329000D01*
X1034000D01*
X1285000Y2580000D01*
X885000Y3080000D02*
X1185000D01*
X1285000Y3180000D01*
X262000Y3158000D02*
X375000Y3045000D01*
X262000Y3158000D02*
Y3937000D01*
X475000Y4150000D01*
X1825000Y3530000D02*
X1934606Y3420394D01*
X1995000D01*
X1515000Y3630000D02*
Y3795000D01*
X1640000Y3920000D01*
X1855000Y4325000D02*
Y4535000D01*
X1955000Y4635000D01*
X2077000D01*
X2127000Y4585000D01*
Y2499562D02*
Y4585000D01*
X2095902Y2468464D02*
X2127000Y2499562D01*
X1626536Y2468464D02*
X2095902D01*
X1480000Y2615000D02*
X1626536Y2468464D01*
X1480000Y2615000D02*
Y3115000D01*
X1825000Y3330000D02*
X1950000Y3205000D01*
Y2580000D02*
Y3205000D01*
X1515000Y3530000D02*
X1567000Y3478000D01*
Y3382000D02*
Y3478000D01*
X1515000Y3330000D02*
X1567000Y3382000D01*
X1825000Y3630000D02*
Y3813740D01*
X1718740Y3920000D02*
X1825000Y3813740D01*
X885000Y3080000D02*
X936990Y3028010D01*
Y2428010D02*
Y3028010D01*
X846990Y2428010D02*
X936990D01*
X810000Y2465000D02*
X846990Y2428010D01*
X380000Y2465000D02*
X810000D01*
X380000Y2765000D02*
X700000D01*
X885000Y2580000D01*
X1995000Y4366574D02*
Y4535000D01*
X1855000Y4226574D02*
X1995000Y4366574D01*
X1285000Y3180000D02*
X1365000D01*
X1515000Y3330000D01*
X1480000Y3115000D02*
X1718426D01*
X1850000Y2580000D02*
Y2885000D01*
X1690000Y3045000D02*
X1850000Y2885000D01*
X958426Y4227314D02*
Y4370000D01*
Y4227314D02*
X968740Y4217000D01*
Y4075000D02*
Y4217000D01*
X1595000Y4325000D02*
X1855000D01*
X662000Y3580000D02*
X885000D01*
X597000Y3645000D02*
X662000Y3580000D01*
X375000Y3645000D02*
X597000D01*
X662000Y3380000D02*
X885000D01*
X597000Y3445000D02*
X662000Y3380000D01*
X375000Y3445000D02*
X597000D01*
X662000Y3480000D02*
X885000D01*
X597000Y3545000D02*
X662000Y3480000D01*
X375000Y3545000D02*
X597000D01*
D11*
X1315000Y4295000D02*
D03*
Y4195000D02*
D03*
D12*
Y4095000D02*
D03*
D13*
X1995000Y4070000D02*
D03*
Y3420394D02*
D03*
X1855000Y4226574D02*
D03*
Y4325000D02*
D03*
X1690000Y3045000D02*
D03*
X1788426D02*
D03*
X860000Y4370000D02*
D03*
X958426D02*
D03*
X1480000Y2453582D02*
D03*
Y3115000D02*
D03*
X785984Y4595000D02*
D03*
D14*
X885000Y2480000D02*
D03*
Y2580000D02*
D03*
Y2680000D02*
D03*
Y2780000D02*
D03*
Y2880000D02*
D03*
Y2980000D02*
D03*
Y3080000D02*
D03*
Y3180000D02*
D03*
Y3280000D02*
D03*
Y3380000D02*
D03*
Y3480000D02*
D03*
Y3580000D02*
D03*
Y3680000D02*
D03*
Y3780000D02*
D03*
X1285000D02*
D03*
Y3680000D02*
D03*
Y3580000D02*
D03*
Y3480000D02*
D03*
Y3380000D02*
D03*
Y3280000D02*
D03*
Y3180000D02*
D03*
Y3080000D02*
D03*
Y2980000D02*
D03*
Y2880000D02*
D03*
Y2780000D02*
D03*
Y2680000D02*
D03*
Y2580000D02*
D03*
X1825000Y3630000D02*
D03*
Y3530000D02*
D03*
Y3430000D02*
D03*
Y3330000D02*
D03*
X1515000D02*
D03*
Y3430000D02*
D03*
Y3530000D02*
D03*
D15*
X1285000Y2480000D02*
D03*
X1515000Y3630000D02*
D03*
D16*
X890000Y4075000D02*
D03*
D17*
X968740D02*
D03*
D18*
X1995000Y4535000D02*
D03*
X1595000Y4246260D02*
D03*
X1718740Y3920000D02*
D03*
D19*
X2073740Y4535000D02*
D03*
X1640000Y3920000D02*
D03*
D20*
X1595000Y4325000D02*
D03*
D21*
X1850000Y2580000D02*
D03*
D22*
X1950000D02*
D03*
X375000Y3145000D02*
D03*
Y3245000D02*
D03*
Y3345000D02*
D03*
Y3445000D02*
D03*
Y3545000D02*
D03*
Y3645000D02*
D03*
Y3745000D02*
D03*
D23*
Y3045000D02*
D03*
D24*
X475000Y4150000D02*
D03*
Y4400000D02*
D03*
D25*
X380000Y2465000D02*
D03*
D26*
Y2565000D02*
D03*
Y2665000D02*
D03*
Y2765000D02*
D03*
D27*
X1160000Y4595000D02*
D03*
D28*
X2170000Y2280000D02*
D03*
X220000Y2270000D02*
D03*
X2190000Y4820000D02*
D03*
X215000Y4830000D02*
D03*
%TF.MD5,5dc6d05316e1b575e536bb872d60fc4b*%
M02*
