%TF.GenerationSoftware,Altium Limited,Altium Designer,20.2.7 (254)*%
G04 Layer_Color=65535*
%FSLAX26Y26*%
%MOIN*%
%TF.SameCoordinates,6B6101E1-C1E4-40C1-A6FF-A8A0D89029E3*%
%TF.FilePolarity,Positive*%
%TF.FileFunction,Legend,Top*%
%TF.Part,Single*%
G01*
G75*
%TA.AperFunction,NonConductor*%
%ADD47C,0.007874*%
%ADD48C,0.003937*%
%ADD49C,0.010000*%
%ADD50C,0.011811*%
D47*
X830945Y4075000D02*
G03*
X830945Y4075000I98425J0D01*
G01*
X2132795Y4535000D02*
G03*
X2132795Y4535000I-98425J0D01*
G01*
X1693425Y4285630D02*
G03*
X1693425Y4285630I-98425J0D01*
G01*
X1777795Y3920000D02*
G03*
X1777795Y3920000I-98425J0D01*
G01*
X1192560Y3992638D02*
X1315000D01*
X1192560D02*
Y4397362D01*
X1382322D01*
X1995000Y3873150D02*
Y4032598D01*
Y3457796D02*
Y3617244D01*
X1945788D02*
X2044212D01*
Y3873150D01*
X1945788D02*
X2044212D01*
X1945788Y3617244D02*
Y3873150D01*
X922480Y3815000D02*
X1247520D01*
X922480Y2445000D02*
X1307284D01*
X1542520Y3280000D02*
X1797480D01*
X1492678Y3680000D02*
X1797480D01*
X1794094Y2526654D02*
Y2580000D01*
Y2526654D02*
X2005906D01*
Y2633346D01*
X1850000D02*
X2005906D01*
X1430788Y2650434D02*
Y2918150D01*
X1529212D01*
Y2650434D02*
Y2918150D01*
X1430788Y2650434D02*
X1529212D01*
X1480000Y2490984D02*
Y2650434D01*
Y2918150D02*
Y3077598D01*
X375000Y2991064D02*
X425000D01*
Y3798938D01*
X325000D02*
X425000D01*
X325000Y3045000D02*
Y3798938D01*
X380000Y2415984D02*
X433938D01*
Y2814016D01*
X326064D02*
X433938D01*
X326064Y2465000D02*
Y2814016D01*
X904094Y4565472D02*
X1041890D01*
X904094D02*
Y4624528D01*
X1041890D01*
Y4565472D02*
Y4624528D01*
X1012362Y4565472D02*
X1041890Y4595000D01*
X1122598D01*
X823386D02*
X904094D01*
D48*
X1805788Y4360434D02*
X1904212D01*
X1805788Y4191142D02*
Y4360434D01*
Y4191142D02*
X1904212D01*
Y4360434D01*
X1823858Y2995788D02*
Y3094212D01*
X1654566D02*
X1823858D01*
X1654566Y2995788D02*
Y3094212D01*
Y2995788D02*
X1823858D01*
X993858Y4320788D02*
Y4419212D01*
X824566D02*
X993858D01*
X824566Y4320788D02*
Y4419212D01*
Y4320788D02*
X993858D01*
X325000Y4000000D02*
Y4550000D01*
X625000D01*
Y4000000D02*
Y4550000D01*
X325000Y4000000D02*
X625000D01*
D49*
X483925Y2475968D02*
X473928Y2485965D01*
X453935D01*
X443938Y2475968D01*
Y2435981D01*
X453935Y2425984D01*
X473928D01*
X483925Y2435981D01*
Y2455974D01*
X463932D01*
X503919Y2425984D02*
Y2485965D01*
X543906Y2425984D01*
Y2485965D01*
X563899D02*
Y2425984D01*
X593889D01*
X603886Y2435981D01*
Y2475968D01*
X593889Y2485965D01*
X563899D01*
X445000Y2574981D02*
Y2534994D01*
X464993Y2515000D01*
X484987Y2534994D01*
Y2574981D01*
X544968Y2554987D02*
X514977D01*
X504981Y2544990D01*
Y2524997D01*
X514977Y2515000D01*
X544968D01*
X604948Y2554987D02*
X574958D01*
X564961Y2544990D01*
Y2524997D01*
X574958Y2515000D01*
X604948D01*
X489987Y2679984D02*
X479990Y2689981D01*
X459997D01*
X450000Y2679984D01*
Y2669987D01*
X459997Y2659990D01*
X479990D01*
X489987Y2649994D01*
Y2639997D01*
X479990Y2630000D01*
X459997D01*
X450000Y2639997D01*
X549968Y2679984D02*
X539971Y2689981D01*
X519977D01*
X509981Y2679984D01*
Y2639997D01*
X519977Y2630000D01*
X539971D01*
X549968Y2639997D01*
X569961Y2689981D02*
Y2630000D01*
X609948D01*
X494987Y2779984D02*
X484990Y2789981D01*
X464997D01*
X455000Y2779984D01*
Y2769987D01*
X464997Y2759990D01*
X484990D01*
X494987Y2749994D01*
Y2739997D01*
X484990Y2730000D01*
X464997D01*
X455000Y2739997D01*
X514981Y2789981D02*
Y2730000D01*
X544971D01*
X554968Y2739997D01*
Y2779984D01*
X544971Y2789981D01*
X514981D01*
X574961Y2730000D02*
Y2769987D01*
X594955Y2789981D01*
X614948Y2769987D01*
Y2730000D01*
Y2759990D01*
X574961D01*
X494987Y3039984D02*
X484990Y3049981D01*
X464997D01*
X455000Y3039984D01*
Y2999997D01*
X464997Y2990000D01*
X484990D01*
X494987Y2999997D01*
Y3019990D01*
X474993D01*
X514981Y2990000D02*
Y3049981D01*
X554968Y2990000D01*
Y3049981D01*
X574961D02*
Y2990000D01*
X604952D01*
X614948Y2999997D01*
Y3039984D01*
X604952Y3049981D01*
X574961D01*
X450000Y3154977D02*
Y3114990D01*
X469993Y3094997D01*
X489987Y3114990D01*
Y3154977D01*
X519977Y3094997D02*
X539971D01*
X549968Y3104994D01*
Y3124987D01*
X539971Y3134984D01*
X519977D01*
X509981Y3124987D01*
Y3104994D01*
X519977Y3094997D01*
X569961D02*
X589955D01*
X579958D01*
Y3154977D01*
X569961D01*
X619945Y3085000D02*
X659932D01*
X679926Y3094997D02*
X699919D01*
X689922D01*
Y3134984D01*
X679926D01*
X729909Y3094997D02*
Y3134984D01*
X759900D01*
X769896Y3124987D01*
Y3094997D01*
X460000Y3259977D02*
Y3219990D01*
X479993Y3199997D01*
X499987Y3219990D01*
Y3259977D01*
X529977Y3199997D02*
X549971D01*
X559968Y3209994D01*
Y3229987D01*
X549971Y3239984D01*
X529977D01*
X519981Y3229987D01*
Y3209994D01*
X529977Y3199997D01*
X579961D02*
X599955D01*
X589958D01*
Y3259977D01*
X579961D01*
X629945Y3190000D02*
X669932D01*
X699922Y3199997D02*
X719916D01*
X729913Y3209994D01*
Y3229987D01*
X719916Y3239984D01*
X699922D01*
X689926Y3229987D01*
Y3209994D01*
X699922Y3199997D01*
X749906Y3239984D02*
Y3209994D01*
X759903Y3199997D01*
X789893D01*
Y3239984D01*
X819884Y3249981D02*
Y3239984D01*
X809887D01*
X829880D01*
X819884D01*
Y3209994D01*
X829880Y3199997D01*
X455000Y3359981D02*
Y3319994D01*
X474993Y3300000D01*
X494987Y3319994D01*
Y3359981D01*
X554968Y3339987D02*
X524977D01*
X514981Y3329990D01*
Y3309997D01*
X524977Y3300000D01*
X554968D01*
X614948Y3339987D02*
X584958D01*
X574961Y3329990D01*
Y3309997D01*
X584958Y3300000D01*
X614948D01*
X460000Y3474981D02*
X499987D01*
X479993D01*
Y3415000D01*
X519981Y3444990D02*
X559968D01*
X579961Y3415000D02*
X599955D01*
X589958D01*
Y3474981D01*
X579961Y3464984D01*
X460000Y3569981D02*
X499987D01*
X479993D01*
Y3510000D01*
X519981Y3539990D02*
X559968D01*
X619948Y3510000D02*
X579961D01*
X619948Y3549987D01*
Y3559984D01*
X609952Y3569981D01*
X589958D01*
X579961Y3559984D01*
X499987Y3669977D02*
X489990Y3679974D01*
X469997D01*
X460000Y3669977D01*
Y3659981D01*
X469997Y3649984D01*
X489990D01*
X499987Y3639987D01*
Y3629990D01*
X489990Y3619994D01*
X469997D01*
X460000Y3629990D01*
X529977Y3669977D02*
Y3659981D01*
X519981D01*
X539974D01*
X529977D01*
Y3629990D01*
X539974Y3619994D01*
X579961D02*
X599955D01*
X609952Y3629990D01*
Y3649984D01*
X599955Y3659981D01*
X579961D01*
X569964Y3649984D01*
Y3629990D01*
X579961Y3619994D01*
X629945Y3600000D02*
Y3659981D01*
X659935D01*
X669932Y3649984D01*
Y3629990D01*
X659935Y3619994D01*
X629945D01*
X504987Y3759984D02*
X494990Y3769981D01*
X474997D01*
X465000Y3759984D01*
Y3749987D01*
X474997Y3739990D01*
X494990D01*
X504987Y3729994D01*
Y3719997D01*
X494990Y3710000D01*
X474997D01*
X465000Y3719997D01*
X524981Y3710000D02*
Y3749987D01*
X554971D01*
X564968Y3739990D01*
Y3710000D01*
X594958D02*
X614952D01*
X624948Y3719997D01*
Y3739990D01*
X614952Y3749987D01*
X594958D01*
X584961Y3739990D01*
Y3719997D01*
X594958Y3710000D01*
X654939D02*
X674932D01*
X684929Y3719997D01*
Y3739990D01*
X674932Y3749987D01*
X654939D01*
X644942Y3739990D01*
Y3719997D01*
X654939Y3710000D01*
X704922Y3749987D02*
X744909D01*
X704922Y3710000D01*
X744909D01*
X794893D02*
X774900D01*
X764903Y3719997D01*
Y3739990D01*
X774900Y3749987D01*
X794893D01*
X804890Y3739990D01*
Y3729994D01*
X764903D01*
X1988739Y2492477D02*
Y2425000D01*
X1955000Y2458739D02*
X2022477D01*
X1820000Y2465000D02*
X1887477D01*
X193072Y4129036D02*
X271787D01*
X198072Y4414036D02*
X276787D01*
X237429Y4453393D02*
Y4374679D01*
X1175034Y4494989D02*
X1195027D01*
X1185031D01*
Y4435008D01*
X1175034D01*
X1195027D01*
X1265005Y4484992D02*
X1255008Y4494989D01*
X1235015D01*
X1225018Y4484992D01*
Y4445005D01*
X1235015Y4435008D01*
X1255008D01*
X1265005Y4445005D01*
X1284998Y4425011D02*
X1324986D01*
X1344979Y4435008D02*
Y4494989D01*
X1374969D01*
X1384966Y4484992D01*
Y4464998D01*
X1374969Y4455002D01*
X1344979D01*
X1815053Y3290006D02*
Y3349987D01*
X1845044D01*
X1855041Y3339990D01*
Y3319997D01*
X1845044Y3310000D01*
X1815053D01*
X1835047D02*
X1855041Y3290006D01*
X1875034D02*
X1895027D01*
X1885031D01*
Y3349987D01*
X1875034Y3339990D01*
X1925018Y3280010D02*
X1965005D01*
X1994995Y3329994D02*
X2014989D01*
X2024986Y3319997D01*
Y3290006D01*
X1994995D01*
X1984998Y3300003D01*
X1994995Y3310000D01*
X2024986D01*
X2044979Y3290006D02*
Y3329994D01*
X2054976D01*
X2064972Y3319997D01*
Y3290006D01*
Y3319997D01*
X2074969Y3329994D01*
X2084966Y3319997D01*
Y3290006D01*
X2104960Y3270013D02*
Y3329994D01*
X2134950D01*
X2144947Y3319997D01*
Y3300003D01*
X2134950Y3290006D01*
X2104960D01*
X899377Y3909362D02*
X873136Y3830638D01*
X899377Y3909362D02*
X925618Y3830638D01*
X899377Y3898115D02*
X921870Y3830638D01*
X880634Y3853131D02*
X914372D01*
X865639Y3830638D02*
X888131D01*
X910623D02*
X933116D01*
X969478Y3909362D02*
Y3830638D01*
X973227Y3909362D02*
Y3830638D01*
X946986Y3909362D02*
X943237Y3886869D01*
Y3909362D01*
X999468D01*
Y3886869D01*
X995720Y3909362D01*
X958232Y3830638D02*
X984473D01*
X1021961Y3909362D02*
Y3830638D01*
X1025709Y3909362D02*
X1048202Y3841885D01*
X1021961Y3909362D02*
X1048202Y3830638D01*
X1074443Y3909362D02*
X1048202Y3830638D01*
X1074443Y3909362D02*
Y3830638D01*
X1078191Y3909362D02*
Y3830638D01*
X1010714Y3909362D02*
X1025709D01*
X1074443D02*
X1089438D01*
X1010714Y3830638D02*
X1033207D01*
X1063197D02*
X1089438D01*
X1109681Y3909362D02*
Y3830638D01*
X1113430Y3909362D02*
Y3830638D01*
X1135922Y3886869D02*
Y3856880D01*
X1098435Y3909362D02*
X1158414D01*
Y3886869D01*
X1154666Y3909362D01*
X1113430Y3871874D02*
X1135922D01*
X1098435Y3830638D02*
X1158414D01*
Y3853131D01*
X1154666Y3830638D01*
X1221768Y3898115D02*
X1225517Y3886869D01*
Y3909362D01*
X1221768Y3898115D01*
X1214271Y3905613D01*
X1203024Y3909362D01*
X1195527D01*
X1184281Y3905613D01*
X1176783Y3898115D01*
X1173034Y3890618D01*
X1169286Y3879372D01*
Y3860628D01*
X1173034Y3849382D01*
X1176783Y3841885D01*
X1184281Y3834387D01*
X1195527Y3830638D01*
X1203024D01*
X1214271Y3834387D01*
X1221768Y3841885D01*
X1195527Y3909362D02*
X1188029Y3905613D01*
X1180532Y3898115D01*
X1176783Y3890618D01*
X1173034Y3879372D01*
Y3860628D01*
X1176783Y3849382D01*
X1180532Y3841885D01*
X1188029Y3834387D01*
X1195527Y3830638D01*
X1221768Y3860628D02*
Y3830638D01*
X1225517Y3860628D02*
Y3830638D01*
X1210522Y3860628D02*
X1236763D01*
X1280623Y3909362D02*
X1254382Y3830638D01*
X1280623Y3909362D02*
X1306864Y3830638D01*
X1280623Y3898115D02*
X1303115Y3830638D01*
X1261879Y3853131D02*
X1295618D01*
X1246884Y3830638D02*
X1269377D01*
X1291869D02*
X1314361D01*
X1815008Y4460023D02*
X1805011Y4450026D01*
Y4430032D01*
X1815008Y4420036D01*
X1854995D01*
X1864992Y4430032D01*
Y4450026D01*
X1854995Y4460023D01*
X1864992Y4510007D02*
X1805011D01*
X1835002Y4480016D01*
Y4520003D01*
X1874989Y4539997D02*
Y4579984D01*
X1864992Y4599977D02*
X1805011D01*
Y4629968D01*
X1815008Y4639965D01*
X1835002D01*
X1844998Y4629968D01*
Y4599977D01*
X1688446Y2924992D02*
X1678449Y2934989D01*
X1658456D01*
X1648459Y2924992D01*
Y2885005D01*
X1658456Y2875008D01*
X1678449D01*
X1688446Y2885005D01*
X1708440Y2875008D02*
X1728433D01*
X1718437D01*
Y2934989D01*
X1708440Y2924992D01*
X1758424Y2865011D02*
X1798411D01*
X1818404Y2875008D02*
Y2914995D01*
X1838398Y2934989D01*
X1858391Y2914995D01*
Y2875008D01*
Y2904998D01*
X1818404D01*
X870021Y4499992D02*
X860024Y4509989D01*
X840031D01*
X830034Y4499992D01*
Y4460005D01*
X840031Y4450008D01*
X860024D01*
X870021Y4460005D01*
X890015Y4450008D02*
X910008D01*
X900011D01*
Y4509989D01*
X890015Y4499992D01*
X939998Y4440011D02*
X979986D01*
X999979Y4450008D02*
Y4509989D01*
X1029969D01*
X1039966Y4499992D01*
Y4479998D01*
X1029969Y4470002D01*
X999979D01*
X1965023Y4734992D02*
X1955026Y4744989D01*
X1935032D01*
X1925036Y4734992D01*
Y4695005D01*
X1935032Y4685008D01*
X1955026D01*
X1965023Y4695005D01*
X1985016Y4734992D02*
X1995013Y4744989D01*
X2015006D01*
X2025003Y4734992D01*
Y4724995D01*
X2015006Y4714998D01*
X2005010D01*
X2015006D01*
X2025003Y4705002D01*
Y4695005D01*
X2015006Y4685008D01*
X1995013D01*
X1985016Y4695005D01*
X2044997Y4675011D02*
X2084984D01*
X2104977Y4685008D02*
Y4724995D01*
X2124971Y4744989D01*
X2144965Y4724995D01*
Y4685008D01*
Y4714998D01*
X2104977D01*
X855023Y4234992D02*
X845026Y4244989D01*
X825032D01*
X815036Y4234992D01*
Y4195005D01*
X825032Y4185008D01*
X845026D01*
X855023Y4195005D01*
X915003Y4185008D02*
X875016D01*
X915003Y4224995D01*
Y4234992D01*
X905006Y4244989D01*
X885013D01*
X875016Y4234992D01*
X934997Y4175011D02*
X974984D01*
X994977Y4185008D02*
Y4244989D01*
X1024968D01*
X1034965Y4234992D01*
Y4214998D01*
X1024968Y4205002D01*
X994977D01*
X1530015Y3754990D02*
X1550008D01*
X1540011D01*
Y3695010D01*
X1530015D01*
X1550008D01*
X1619986Y3744994D02*
X1609989Y3754990D01*
X1589995D01*
X1579998Y3744994D01*
Y3705006D01*
X1589995Y3695010D01*
X1609989D01*
X1619986Y3705006D01*
X1706886Y2716422D02*
X1709742Y2724991D01*
Y2707852D01*
X1706886Y2716422D01*
X1701173Y2722135D01*
X1692603Y2724991D01*
X1684034D01*
X1675464Y2722135D01*
X1669751Y2716422D01*
Y2710709D01*
X1672607Y2704996D01*
X1675464Y2702139D01*
X1681177Y2699283D01*
X1698316Y2693570D01*
X1704029Y2690713D01*
X1709742Y2685000D01*
X1669751Y2710709D02*
X1675464Y2704996D01*
X1681177Y2702139D01*
X1698316Y2696426D01*
X1704029Y2693570D01*
X1706886Y2690713D01*
X1709742Y2685000D01*
Y2673574D01*
X1704029Y2667861D01*
X1695460Y2665004D01*
X1686890D01*
X1678320Y2667861D01*
X1672607Y2673574D01*
X1669751Y2682144D01*
Y2665004D01*
X1672607Y2673574D01*
X1727167Y2704996D02*
Y2645009D01*
X1730024Y2704996D02*
Y2645009D01*
Y2696426D02*
X1735737Y2702139D01*
X1741450Y2704996D01*
X1747163D01*
X1755732Y2702139D01*
X1761446Y2696426D01*
X1764302Y2687856D01*
Y2682144D01*
X1761446Y2673574D01*
X1755732Y2667861D01*
X1747163Y2665004D01*
X1741450D01*
X1735737Y2667861D01*
X1730024Y2673574D01*
X1747163Y2704996D02*
X1752876Y2702139D01*
X1758589Y2696426D01*
X1761446Y2687856D01*
Y2682144D01*
X1758589Y2673574D01*
X1752876Y2667861D01*
X1747163Y2665004D01*
X1718598Y2704996D02*
X1730024D01*
X1718598Y2645009D02*
X1738593D01*
X1775442Y2687856D02*
X1809721D01*
Y2693570D01*
X1806864Y2699283D01*
X1804008Y2702139D01*
X1798295Y2704996D01*
X1789725D01*
X1781156Y2702139D01*
X1775442Y2696426D01*
X1772586Y2687856D01*
Y2682144D01*
X1775442Y2673574D01*
X1781156Y2667861D01*
X1789725Y2665004D01*
X1795438D01*
X1804008Y2667861D01*
X1809721Y2673574D01*
X1806864Y2687856D02*
Y2696426D01*
X1804008Y2702139D01*
X1789725Y2704996D02*
X1784012Y2702139D01*
X1778299Y2696426D01*
X1775442Y2687856D01*
Y2682144D01*
X1778299Y2673574D01*
X1784012Y2667861D01*
X1789725Y2665004D01*
X1824575Y2699283D02*
Y2696426D01*
X1821718D01*
Y2699283D01*
X1824575Y2702139D01*
X1830288Y2704996D01*
X1841714D01*
X1847427Y2702139D01*
X1850284Y2699283D01*
X1853140Y2693570D01*
Y2673574D01*
X1855997Y2667861D01*
X1858853Y2665004D01*
X1850284Y2699283D02*
Y2673574D01*
X1853140Y2667861D01*
X1858853Y2665004D01*
X1861710D01*
X1850284Y2693570D02*
X1847427Y2690713D01*
X1830288Y2687856D01*
X1821718Y2685000D01*
X1818862Y2679287D01*
Y2673574D01*
X1821718Y2667861D01*
X1830288Y2665004D01*
X1838857D01*
X1844571Y2667861D01*
X1850284Y2673574D01*
X1830288Y2687856D02*
X1824575Y2685000D01*
X1821718Y2679287D01*
Y2673574D01*
X1824575Y2667861D01*
X1830288Y2665004D01*
X1878849Y2724991D02*
Y2665004D01*
X1881705Y2724991D02*
Y2665004D01*
X1910271Y2704996D02*
X1881705Y2676430D01*
X1895988Y2687856D02*
X1913127Y2665004D01*
X1893131Y2687856D02*
X1910271Y2665004D01*
X1870279Y2724991D02*
X1881705D01*
X1901701Y2704996D02*
X1918840D01*
X1870279Y2665004D02*
X1890275D01*
X1901701D02*
X1918840D01*
X1929695Y2687856D02*
X1963974D01*
Y2693570D01*
X1961117Y2699283D01*
X1958260Y2702139D01*
X1952547Y2704996D01*
X1943978D01*
X1935408Y2702139D01*
X1929695Y2696426D01*
X1926839Y2687856D01*
Y2682144D01*
X1929695Y2673574D01*
X1935408Y2667861D01*
X1943978Y2665004D01*
X1949691D01*
X1958260Y2667861D01*
X1963974Y2673574D01*
X1961117Y2687856D02*
Y2696426D01*
X1958260Y2702139D01*
X1943978Y2704996D02*
X1938265Y2702139D01*
X1932552Y2696426D01*
X1929695Y2687856D01*
Y2682144D01*
X1932552Y2673574D01*
X1938265Y2667861D01*
X1943978Y2665004D01*
X1981684Y2704996D02*
Y2665004D01*
X1984541Y2704996D02*
Y2665004D01*
Y2687856D02*
X1987397Y2696426D01*
X1993110Y2702139D01*
X1998823Y2704996D01*
X2007393D01*
X2010249Y2702139D01*
Y2699283D01*
X2007393Y2696426D01*
X2004536Y2699283D01*
X2007393Y2702139D01*
X1973114Y2704996D02*
X1984541D01*
X1973114Y2665004D02*
X1993110D01*
X285026Y2875010D02*
Y2934990D01*
X315016D01*
X325013Y2924994D01*
Y2905000D01*
X315016Y2895003D01*
X285026D01*
X305019D02*
X325013Y2875010D01*
X345007Y2934990D02*
X384994D01*
X365000D01*
Y2875010D01*
X444974Y2924994D02*
X434977Y2934990D01*
X414984D01*
X404987Y2924994D01*
Y2885006D01*
X414984Y2875010D01*
X434977D01*
X444974Y2885006D01*
X355044Y4724990D02*
Y4665010D01*
X385034D01*
X395031Y4675007D01*
Y4714993D01*
X385034Y4724990D01*
X355044D01*
X455011Y4714993D02*
X445015Y4724990D01*
X425021D01*
X415024Y4714993D01*
Y4675007D01*
X425021Y4665010D01*
X445015D01*
X455011Y4675007D01*
X534986Y4724990D02*
X554979D01*
X544982D01*
Y4665010D01*
X534986D01*
X554979D01*
X584969D02*
Y4724990D01*
X624956Y4665010D01*
Y4724990D01*
X762000Y4738996D02*
Y4679016D01*
X791990D01*
X801987Y4689012D01*
Y4728999D01*
X791990Y4738996D01*
X762000D01*
X821981Y4669019D02*
X861968D01*
X881961Y4679016D02*
Y4738996D01*
X911952D01*
X921948Y4728999D01*
Y4709006D01*
X911952Y4699009D01*
X881961D01*
X1530023Y4479992D02*
X1520026Y4489989D01*
X1500032D01*
X1490036Y4479992D01*
Y4440005D01*
X1500032Y4430008D01*
X1520026D01*
X1530023Y4440005D01*
X1550016Y4479992D02*
X1560013Y4489989D01*
X1580006D01*
X1590003Y4479992D01*
Y4469995D01*
X1580006Y4459998D01*
X1570010D01*
X1580006D01*
X1590003Y4450002D01*
Y4440005D01*
X1580006Y4430008D01*
X1560013D01*
X1550016Y4440005D01*
X1609997Y4420011D02*
X1649984D01*
X1669977Y4430008D02*
Y4489989D01*
X1699968D01*
X1709965Y4479992D01*
Y4459998D01*
X1699968Y4450002D01*
X1669977D01*
X1630023Y4119992D02*
X1620026Y4129989D01*
X1600032D01*
X1590036Y4119992D01*
Y4080005D01*
X1600032Y4070008D01*
X1620026D01*
X1630023Y4080005D01*
X1690003Y4070008D02*
X1650016D01*
X1690003Y4109995D01*
Y4119992D01*
X1680006Y4129989D01*
X1660013D01*
X1650016Y4119992D01*
X1709997Y4060011D02*
X1749984D01*
X1769977Y4070008D02*
Y4109995D01*
X1789971Y4129989D01*
X1809965Y4109995D01*
Y4070008D01*
Y4099998D01*
X1769977D01*
D50*
X312597Y3896424D02*
X315453Y3904994D01*
Y3887854D01*
X312597Y3896424D01*
X306884Y3902137D01*
X298314Y3904994D01*
X289744D01*
X281175Y3902137D01*
X275462Y3896424D01*
Y3890711D01*
X278318Y3884998D01*
X281175Y3882141D01*
X286888Y3879285D01*
X304027Y3873572D01*
X309740Y3870715D01*
X315453Y3865002D01*
X275462Y3890711D02*
X281175Y3884998D01*
X286888Y3882141D01*
X304027Y3876428D01*
X309740Y3873572D01*
X312597Y3870715D01*
X315453Y3865002D01*
Y3853576D01*
X309740Y3847863D01*
X301171Y3845006D01*
X292601D01*
X284031Y3847863D01*
X278318Y3853576D01*
X275462Y3862146D01*
Y3845006D01*
X278318Y3853576D01*
X332878Y3904994D02*
X344304Y3845006D01*
X335735Y3904994D02*
X344304Y3859289D01*
X355730Y3904994D02*
X344304Y3845006D01*
X355730Y3904994D02*
X367156Y3845006D01*
X358587Y3904994D02*
X367156Y3859289D01*
X378582Y3904994D02*
X367156Y3845006D01*
X324308Y3904994D02*
X344304D01*
X370013D02*
X387152D01*
X402292D02*
Y3845006D01*
X405148Y3904994D02*
Y3845006D01*
X393722Y3904994D02*
X413718D01*
X393722Y3845006D02*
X413718D01*
X444568Y3904994D02*
Y3845006D01*
X447425Y3904994D02*
Y3845006D01*
X427429Y3904994D02*
X424573Y3887854D01*
Y3904994D01*
X467421D01*
Y3887854D01*
X464564Y3904994D01*
X435999Y3845006D02*
X455994D01*
X515982Y3896424D02*
X518838Y3887854D01*
Y3904994D01*
X515982Y3896424D01*
X510269Y3902137D01*
X501699Y3904994D01*
X495986D01*
X487416Y3902137D01*
X481703Y3896424D01*
X478847Y3890711D01*
X475990Y3882141D01*
Y3867859D01*
X478847Y3859289D01*
X481703Y3853576D01*
X487416Y3847863D01*
X495986Y3845006D01*
X501699D01*
X510269Y3847863D01*
X515982Y3853576D01*
X518838Y3859289D01*
X495986Y3904994D02*
X490273Y3902137D01*
X484560Y3896424D01*
X481703Y3890711D01*
X478847Y3882141D01*
Y3867859D01*
X481703Y3859289D01*
X484560Y3853576D01*
X490273Y3847863D01*
X495986Y3845006D01*
X535977Y3904994D02*
Y3845006D01*
X538834Y3904994D02*
Y3845006D01*
X573112Y3904994D02*
Y3845006D01*
X575969Y3904994D02*
Y3845006D01*
X527408Y3904994D02*
X547404D01*
X564543D02*
X584538D01*
X538834Y3876428D02*
X573112D01*
X527408Y3845006D02*
X547404D01*
X564543D02*
X584538D01*
%TF.MD5,f51bbab4db4738fa69d2f494a55aaa58*%
M02*
